<?xml version="1.0" standalone="no"?>
<!DOCTYPE svg PUBLIC "-//W3C//DTD SVG 20010904//EN"
 "http://www.w3.org/TR/2001/REC-SVG-20010904/DTD/svg10.dtd">
<svg version="1.0" xmlns="http://www.w3.org/2000/svg"
 width="2628.000000pt" height="2808.000000pt" viewBox="0 0 2628.000000 2808.000000"
 preserveAspectRatio="xMidYMid meet">

<g transform="translate(0.000000,2808.000000) scale(0.100000,-0.100000)"
fill="#000000" stroke="none">
<path d="M0 14040 l0 -14040 13140 0 13140 0 0 14040 0 14040 -13140 0 -13140
0 0 -14040z m16200 8190 c94 -9 163 -22 355 -65 180 -41 225 -53 249 -69 15
-9 30 -15 35 -12 5 3 27 -3 49 -14 23 -11 50 -20 62 -20 18 0 60 -16 145 -55
17 -8 55 -24 85 -35 64 -25 207 -101 335 -178 363 -219 747 -582 976 -923 127
-190 269 -451 347 -639 38 -92 141 -448 167 -575 67 -337 71 -805 10 -1171
-22 -127 -104 -428 -157 -572 -45 -124 -111 -252 -130 -252 -4 0 -48 31 -98
69 -179 137 -420 264 -655 345 -44 16 -89 32 -100 37 -11 5 -36 11 -55 14 -19
3 -66 12 -105 20 -200 39 -542 51 -747 25 -239 -29 -468 -91 -722 -194 -50
-20 -93 -36 -97 -36 -31 0 -360 -175 -539 -287 -250 -156 -304 -195 -446 -319
-131 -115 -341 -360 -419 -489 -16 -28 -40 -64 -52 -82 -13 -17 -23 -34 -23
-37 0 -3 -15 -26 -34 -51 -19 -24 -37 -58 -41 -74 -3 -16 -13 -35 -21 -42 -8
-6 -14 -17 -14 -24 0 -7 -25 -63 -56 -126 -52 -105 -163 -393 -219 -566 -22
-65 -47 -176 -126 -558 -52 -251 -70 -453 -76 -838 -7 -450 15 -761 74 -1042
14 -66 29 -140 34 -165 16 -82 31 -130 42 -130 13 0 146 80 167 100 8 8 28 25
45 38 l29 23 -27 167 c-36 224 -44 298 -58 492 -23 335 -8 884 31 1145 5 33
14 94 20 135 9 66 24 132 101 450 32 130 55 198 141 412 79 199 107 257 201
423 159 280 341 504 547 671 158 128 457 315 640 400 41 19 83 39 92 44 10 6
24 10 31 10 7 0 56 22 109 50 187 96 333 141 608 187 197 33 483 37 650 10
125 -20 314 -67 318 -79 2 -4 16 -8 32 -8 47 0 287 -115 430 -205 218 -137
532 -447 706 -695 145 -206 279 -461 373 -709 39 -100 81 -197 95 -216 29 -37
32 -38 251 -55 177 -14 301 -41 522 -111 287 -92 488 -182 734 -328 602 -358
1020 -877 1129 -1403 30 -147 40 -250 40 -423 0 -229 -20 -376 -86 -652 -39
-164 -131 -409 -222 -588 -43 -86 -152 -255 -241 -375 -85 -114 -385 -427
-486 -506 -27 -21 -65 -53 -85 -70 -103 -89 -364 -266 -545 -370 -327 -185
-802 -386 -1163 -491 -309 -89 -340 -97 -557 -138 -303 -57 -599 -103 -745
-114 -230 -18 -609 -34 -649 -27 -38 6 -39 5 -82 -56 -102 -143 -285 -362
-400 -479 -176 -178 -412 -360 -574 -442 -123 -62 -120 -53 -35 -143 191 -204
424 -569 543 -849 74 -176 94 -237 138 -412 46 -185 48 -237 10 -334 -41 -108
-131 -181 -261 -215 -51 -13 -74 -14 -129 -5 -86 15 -203 51 -376 116 -139 53
-284 95 -325 95 -15 0 -26 -12 -42 -47 -56 -129 -135 -320 -174 -422 -51 -134
-78 -176 -148 -230 -151 -116 -326 -114 -466 7 -27 22 -93 112 -169 227 -224
340 -369 538 -546 746 -278 325 -310 358 -318 343 -5 -9 -8 -943 -8 -2077 0
-1134 -3 -2125 -8 -2202 -10 -162 -27 -217 -91 -297 -56 -71 -126 -122 -207
-150 l-68 -23 -776 0 -775 0 -76 38 c-150 73 -227 175 -248 326 -7 48 -10 788
-10 2150 0 1142 0 2111 0 2154 0 55 -4 77 -13 77 -26 0 -264 -260 -405 -441
-237 -308 -367 -494 -495 -710 -90 -152 -182 -226 -310 -250 -107 -19 -223 19
-307 103 -52 52 -167 286 -205 418 -12 40 -92 207 -115 240 -18 25 -26 29 -48
24 -48 -11 -164 -50 -307 -104 -273 -102 -380 -126 -483 -109 -79 12 -131 38
-192 95 -103 97 -131 215 -90 387 36 150 138 444 195 562 159 325 295 532 501
761 l82 91 -86 42 c-181 90 -389 245 -582 435 -149 147 -347 376 -325 376 8 0
-11 22 -61 71 -23 22 -49 55 -59 73 -23 43 -38 46 -227 46 -199 0 -457 16
-648 41 -151 19 -545 87 -624 108 -22 5 -44 8 -48 5 -4 -3 -8 0 -8 6 0 6 -3 9
-7 7 -39 -24 -562 131 -893 263 -212 85 -240 97 -375 160 -174 81 -197 92
-353 182 -628 363 -1076 798 -1345 1308 -98 187 -215 499 -256 685 -89 402
-68 863 52 1165 8 19 20 50 26 68 7 17 17 32 23 32 6 0 8 6 5 14 -3 8 0 17 8
19 7 3 19 23 25 44 7 21 19 42 26 46 8 4 14 17 14 28 0 13 4 18 12 13 8 -5 9
-2 5 9 -3 10 -2 17 3 17 5 0 12 9 15 21 4 11 9 18 12 15 7 -7 33 41 33 61 0 8
9 17 19 20 11 3 17 11 15 18 -6 15 24 47 37 40 9 -6 13 8 10 34 -2 7 2 10 8 6
6 -3 11 0 11 8 0 8 7 20 15 27 8 7 13 16 10 20 -5 8 24 24 39 21 5 -1 5 6 2
15 -8 21 60 87 78 77 6 -4 5 1 -3 10 -12 15 -9 21 12 18 4 0 7 6 7 15 0 9 5
12 12 8 6 -4 8 -3 4 4 -3 6 -2 13 4 17 6 4 8 11 5 16 -4 5 3 9 14 9 12 0 21 4
21 10 0 5 16 20 35 32 19 13 35 30 35 38 0 11 2 12 8 3 5 -8 14 -3 27 17 11
17 23 30 27 30 4 0 13 7 22 15 34 34 105 83 111 77 4 -4 5 2 3 12 -2 14 4 21
20 25 13 3 23 9 23 14 -1 4 2 7 6 6 3 0 10 6 15 15 5 9 14 13 20 10 7 -4 8 -2
4 5 -4 6 0 14 11 18 10 4 24 15 32 26 8 11 21 17 32 14 10 -3 20 2 24 11 3 8
8 12 11 9 3 -2 17 6 31 19 15 14 33 22 40 20 7 -3 13 1 13 8 0 9 7 12 18 9 11
-3 25 5 37 20 10 14 24 23 32 20 8 -3 21 1 31 9 9 8 32 21 50 29 17 8 32 17
32 21 0 4 10 12 21 19 17 9 20 8 13 -3 -4 -7 2 -5 13 5 11 9 23 14 26 10 4 -3
7 -1 7 5 0 7 8 12 17 12 9 0 24 6 32 14 22 20 181 87 191 81 4 -3 13 2 20 9 6
8 26 18 43 21 18 4 41 12 52 19 11 7 40 18 65 25 25 8 61 21 80 29 19 9 61 16
92 16 33 0 56 4 55 10 -1 6 21 11 48 12 84 3 126 12 146 30 13 12 19 13 19 4
0 -10 4 -9 17 1 12 10 50 14 140 14 67 0 123 3 123 8 0 4 4 6 9 5 26 -8 90 48
115 99 15 30 22 52 16 48 -5 -3 -10 -1 -10 4 0 6 4 11 10 11 5 0 6 7 3 17 -4
11 -3 14 5 9 8 -4 10 -2 6 7 -19 50 251 598 344 695 6 7 12 17 12 21 0 7 57
85 117 159 15 19 39 53 53 75 15 23 61 77 102 119 42 42 73 79 70 83 -3 3 0 5
6 5 7 0 26 12 43 28 17 15 35 26 40 24 5 -1 9 5 9 13 0 8 4 15 8 15 10 0 69
48 96 78 11 12 24 22 30 22 6 0 21 12 33 27 13 14 23 20 23 13 0 -10 3 -10 15
0 9 7 14 19 11 27 -3 8 4 15 19 19 14 3 23 10 20 14 -3 5 11 14 30 20 19 6 35
16 35 21 0 6 4 8 9 4 5 -3 12 -1 16 4 3 6 37 27 75 47 39 20 70 40 70 45 0 5
9 9 20 9 11 0 20 5 20 10 0 6 9 10 20 10 11 0 20 5 20 10 0 6 3 9 8 9 21 -4
32 2 26 13 -5 8 -2 9 9 5 9 -3 22 -1 29 6 7 7 22 13 33 15 11 1 31 4 45 6 14
2 36 8 50 13 14 6 28 9 33 6 4 -2 7 0 7 6 0 5 26 15 57 21 31 7 75 19 97 27
152 54 588 59 811 8 150 -34 182 -43 212 -58 18 -10 50 -17 73 -17 22 0 48 -4
58 -10 9 -5 82 -35 162 -66 300 -116 614 -294 905 -513 84 -63 283 -269 366
-378 208 -275 366 -583 482 -944 109 -337 126 -415 182 -806 77 -542 70 -995
-25 -1554 -17 -97 -30 -189 -30 -205 0 -25 15 -40 116 -114 63 -47 118 -86
122 -88 30 -10 87 285 133 688 39 348 35 835 -11 1205 -58 475 -56 465 -177
865 -204 675 -496 1156 -928 1528 -103 89 -277 212 -390 277 -27 15 -98 59
-156 96 -170 109 -284 160 -614 279 -370 132 -503 155 -890 155 -350 0 -576
-42 -838 -154 -27 -12 -58 -21 -70 -21 -44 0 -117 -34 -177 -80 -19 -15 -41
-25 -47 -23 -7 3 -13 0 -13 -6 0 -6 -7 -11 -15 -11 -8 0 -15 -4 -15 -8 0 -5
-12 -14 -27 -21 -45 -21 -161 -102 -167 -117 -3 -8 -12 -14 -21 -14 -8 0 -15
-6 -15 -13 0 -18 -63 -54 -68 -39 -2 7 -9 9 -15 5 -7 -4 -8 0 -4 11 5 11 3 16
-5 14 -12 -4 -49 27 -47 40 1 4 1 9 -1 12 -1 3 -3 16 -6 29 -2 14 -13 31 -24
38 -11 8 -20 23 -20 34 0 11 -7 22 -15 25 -19 8 -72 171 -124 384 -76 309 -90
449 -86 860 2 294 14 446 44 565 l10 40 -4 -40 c-13 -107 -17 -179 -11 -174 4
4 9 26 11 50 9 93 17 139 24 139 4 0 6 -21 4 -46 -3 -31 -1 -44 6 -39 15 9 14
-8 -1 -24 -11 -10 -10 -11 4 -6 9 4 18 14 21 23 3 9 8 26 13 36 5 15 4 17 -6
11 -7 -5 -11 -4 -9 1 3 5 11 22 19 38 12 22 12 30 3 33 -8 3 -4 12 11 26 18
17 23 30 19 50 -4 20 -1 27 11 27 9 0 13 6 10 15 -4 8 1 17 10 21 9 3 13 11
10 16 -4 6 -10 5 -15 -3 -5 -8 -9 -9 -10 -4 0 6 -2 18 -4 27 -2 9 4 25 12 35
13 17 13 17 4 -3 -13 -27 -3 -38 16 -18 9 8 13 18 9 21 -3 3 -2 11 3 17 5 6 5
33 1 61 -4 28 -4 51 1 53 18 7 8 24 -10 19 -13 -3 -18 0 -15 8 3 6 21 12 40
13 19 1 32 -2 30 -7 -3 -5 0 -14 7 -19 10 -9 14 -3 15 25 2 20 6 41 9 46 4 6
0 8 -10 4 -9 -3 -18 1 -21 10 -9 22 3 31 15 13 8 -11 9 -7 7 16 -3 23 -1 31 9
27 13 -5 17 -17 14 -40 -1 -7 3 -13 8 -13 16 0 24 21 13 32 -6 6 -8 17 -5 25
4 9 -2 16 -15 20 -20 5 -20 33 0 33 5 0 6 -4 3 -10 -12 -19 7 -10 26 13 l18
22 1 -28 c0 -27 2 -28 41 -23 l41 5 -4 -44 c-2 -29 0 -40 7 -35 10 8 11 31 7
82 -2 11 -8 14 -22 11 -11 -3 -20 0 -20 6 0 6 5 11 11 11 6 0 9 7 5 15 -3 8
-1 16 4 16 6 1 15 2 22 3 15 1 23 26 8 26 -6 0 -9 4 -5 10 3 5 13 6 22 3 13
-5 15 -2 9 20 -5 21 -3 25 8 21 12 -4 14 0 10 20 -2 14 0 26 6 26 5 0 10 -11
10 -25 0 -14 6 -25 13 -25 6 0 13 -11 13 -25 1 -14 -2 -25 -7 -25 -5 0 -9 9
-9 20 0 11 -7 20 -15 20 -8 0 -15 -5 -15 -11 0 -5 5 -7 11 -3 17 10 0 -39 -19
-53 -9 -7 -22 -13 -29 -13 -7 0 -13 -7 -13 -15 0 -8 5 -15 11 -15 5 0 8 -4 4
-9 -3 -5 -1 -12 5 -16 11 -7 40 18 40 34 0 6 5 11 10 11 6 0 10 9 10 20 0 13
7 20 20 20 17 0 20 7 20 50 0 28 4 50 10 50 5 0 7 -6 5 -12 -7 -17 51 -16 67
0 9 9 9 12 -1 12 -7 0 -9 5 -6 10 3 6 2 10 -4 10 -5 0 -14 -7 -19 -16 -11 -20
-25 -3 -16 20 4 11 13 14 24 11 10 -3 21 -1 25 5 3 5 17 7 31 4 14 -4 24 -2
24 5 0 6 7 11 16 11 8 0 13 -4 9 -9 -3 -5 8 -3 25 5 33 17 46 49 36 90 -5 17
-3 23 4 19 7 -5 8 2 3 22 -4 15 -8 47 -8 70 0 23 -3 39 -7 37 -5 -3 -8 1 -8 8
0 10 13 13 45 11 25 -1 45 1 45 6 0 4 18 7 40 7 38 -1 40 0 39 29 l0 30 -10
-25 c-10 -24 -11 -24 -25 -6 -9 13 -14 15 -14 6 0 -7 -3 -10 -6 -7 -4 3 -15 2
-25 -4 -16 -8 -19 -6 -19 16 0 21 5 25 27 25 26 0 26 1 7 15 -10 8 -14 15 -7
15 6 0 18 -7 27 -15 18 -19 71 -21 60 -2 -6 9 -5 9 8 0 8 -7 18 -10 21 -6 15
15 5 23 -28 23 -19 0 -35 5 -35 11 0 7 12 10 30 7 27 -4 30 -2 30 24 0 16 5
28 13 28 7 0 8 3 2 8 -5 4 -16 17 -23 30 -11 20 -10 23 14 32 19 8 31 7 42 -2
8 -7 16 -13 17 -13 8 0 45 40 45 48 0 6 -3 8 -6 4 -8 -8 -34 18 -34 33 0 7 7
9 16 6 9 -3 21 -6 27 -6 7 0 6 -4 -3 -10 -13 -8 -12 -10 3 -10 9 0 17 5 17 10
0 6 7 10 15 10 9 0 18 7 21 15 3 8 15 17 26 21 11 3 17 11 15 17 -5 14 18 39
27 30 3 -4 6 1 6 10 0 9 -8 21 -17 26 -14 8 -10 10 20 7 36 -2 48 6 27 19 -8
5 -7 12 2 22 9 11 24 14 58 9 31 -4 40 -3 30 4 -8 5 -10 10 -4 10 7 0 9 11 6
26 -4 21 -2 25 9 19 12 -8 12 -6 0 8 -11 15 -11 17 2 17 20 0 25 -16 20 -69
-3 -38 -1 -42 14 -35 10 4 38 8 63 8 37 0 47 4 58 24 18 35 15 45 -11 39 -12
-4 -28 -2 -36 2 -19 12 25 21 71 15 32 -5 37 -3 32 10 -4 11 2 19 20 26 32 12
34 22 4 20 -37 -3 -41 -1 -28 14 6 8 18 12 26 9 8 -3 14 0 14 5 0 23 -18 20
-45 -8 -16 -17 -23 -30 -17 -30 7 0 12 -5 12 -11 0 -5 -4 -7 -10 -4 -5 3 -10
1 -10 -5 0 -6 -8 -9 -18 -6 -9 3 -32 2 -49 -3 -23 -7 -33 -6 -36 2 -6 17 14
52 22 40 3 -6 21 -14 39 -18 32 -7 33 -6 22 15 -10 18 -14 19 -27 8 -14 -11
-16 -10 -11 8 3 12 2 28 -2 35 -9 14 8 35 36 42 18 4 18 5 -2 6 -29 1 -60 26
-45 35 6 4 14 0 17 -8 4 -11 11 -13 23 -7 23 13 85 -14 77 -34 -3 -9 0 -15 9
-15 11 0 14 8 10 30 -4 22 -1 30 10 30 8 0 12 -6 9 -14 -3 -7 1 -16 10 -19 8
-3 17 1 20 9 3 8 10 14 16 14 6 0 8 -5 4 -12 -4 -7 -3 -8 4 -4 18 11 14 24
-10 32 l-23 7 23 8 c12 5 22 14 22 21 0 24 16 39 34 32 13 -5 14 -9 5 -20 -13
-16 6 -48 23 -38 5 3 2 11 -7 18 -14 10 -14 13 4 28 11 9 22 14 25 11 3 -4 6
-1 6 5 0 7 -4 12 -10 12 -5 0 -7 7 -3 16 4 11 14 14 34 10 16 -3 31 -1 34 5 4
5 1 8 -6 7 -7 -2 -18 6 -23 18 -10 23 -71 33 -63 11 2 -7 12 -11 21 -11 9 1
16 -2 16 -7 0 -5 -9 -9 -20 -9 -11 0 -19 -3 -19 -7 4 -22 -3 -31 -26 -35 -31
-6 -31 -2 -3 23 13 10 19 19 13 19 -5 1 -18 3 -27 5 -13 2 -18 -3 -18 -20 0
-13 -6 -25 -12 -28 -10 -4 -10 -7 0 -18 18 -19 15 -29 -8 -29 -11 0 -20 -7
-20 -15 0 -8 -5 -15 -11 -15 -5 0 -7 5 -4 10 3 6 -3 10 -15 10 -12 0 -18 -4
-15 -10 3 -5 -1 -10 -10 -10 -9 0 -13 5 -10 10 3 6 1 10 -6 10 -7 0 -9 3 -6 7
4 3 -1 12 -11 19 -11 9 -13 13 -4 14 7 0 11 4 8 9 -4 5 -3 17 1 28 6 14 9 11
14 -17 6 -31 7 -33 14 -12 10 31 25 28 19 -5 -4 -22 -3 -24 10 -14 11 9 15 9
20 -1 3 -7 5 1 3 19 -2 20 2 34 10 37 7 3 13 0 13 -6 0 -6 3 -8 6 -5 10 10
-17 38 -29 30 -6 -3 -7 -1 -3 5 4 6 13 9 21 5 8 -3 15 0 15 7 0 7 8 10 20 7
11 -3 20 -1 20 4 0 5 -7 9 -16 9 -8 0 -23 8 -32 17 -16 16 -16 16 1 10 10 -4
30 -7 43 -7 14 0 22 -4 19 -10 -3 -5 -2 -10 4 -10 5 0 13 5 17 11 3 6 14 9 24
6 11 -3 21 2 24 10 5 13 9 13 22 3 12 -10 17 -11 27 -1 7 7 8 12 2 11 -22 -5
-35 1 -35 14 0 9 7 12 20 9 11 -3 20 0 20 6 0 6 -10 11 -22 11 -13 0 -30 5
-38 10 -12 7 -8 10 15 10 17 0 37 -4 45 -10 9 -5 19 -5 26 1 9 7 15 6 21 -3 4
-7 17 -18 29 -25 17 -9 21 -8 21 3 0 8 -7 14 -16 14 -15 0 -61 38 -61 51 0 3
11 9 25 11 14 3 25 1 25 -4 0 -4 11 -1 24 7 l24 16 -5 -41 -6 -40 29 15 c15 8
31 11 34 6 3 -5 17 -9 32 -9 22 0 27 5 30 34 2 18 0 30 -4 28 -4 -3 -8 4 -8
15 0 12 -5 21 -11 21 -6 0 -9 -7 -5 -15 4 -12 -2 -14 -27 -11 -18 3 -40 5 -49
5 -10 1 -18 5 -18 11 0 5 13 7 28 4 23 -5 33 0 54 25 l26 30 6 -34 c7 -37 15
-42 34 -23 14 14 16 4 3 -20 -6 -12 -4 -24 9 -39 15 -19 19 -20 24 -7 3 8 2
12 -4 9 -6 -3 -10 2 -10 12 0 19 38 58 47 49 12 -12 45 16 40 35 -4 16 -2 17
15 8 23 -13 33 -6 24 16 -4 13 -13 15 -36 10 -31 -7 -36 0 -20 25 6 10 10 11
10 3 0 -8 14 -12 39 -10 24 1 37 6 34 14 -5 14 56 75 71 70 6 -2 20 5 30 15
11 10 27 16 34 13 8 -3 30 3 48 14 19 11 34 15 36 9 4 -12 99 -31 107 -22 3 4
0 9 -6 11 -19 7 -16 21 8 34 15 8 19 8 15 0 -4 -6 0 -11 9 -11 11 0 15 5 11
15 -7 19 20 46 39 39 8 -3 14 -9 13 -12 -3 -15 15 -42 23 -36 5 3 5 13 -1 24
-13 25 -13 30 5 30 8 0 15 -4 15 -10 0 -5 5 -10 11 -10 5 0 7 5 4 10 -3 6 1
10 9 10 21 0 20 -17 -1 -28 -15 -9 -14 -11 4 -21 16 -8 21 -7 20 2 -1 36 5 47
23 47 11 0 20 -4 20 -10 0 -5 7 -7 15 -4 29 12 14 25 -25 23 -21 -2 -42 0 -45
3 -6 6 20 11 105 21 14 1 24 8 23 15 -4 17 14 15 21 -3 7 -19 36 -20 36 -2 0
8 7 14 15 14 8 0 12 -4 9 -9 -6 -9 3 -10 33 -2 13 4 20 11 16 17 -3 6 -1 7 6
3 6 -4 9 -11 6 -15 -2 -5 6 -8 19 -8 18 0 23 4 19 16 -6 14 -4 14 13 -1 12
-10 24 -14 30 -9 5 5 19 12 32 16 16 5 22 2 22 -9 0 -9 4 -16 10 -16 5 0 9 6
7 13 -2 13 30 19 108 18 66 -1 117 -10 110 -20 -2 -5 2 -14 9 -20 17 -14 31 2
20 22 -4 6 2 4 13 -5 11 -10 27 -18 37 -18 9 0 15 -4 12 -9 -3 -5 3 -11 13
-14 13 -3 18 0 15 8 -3 7 2 15 10 18 19 8 46 -1 46 -15 0 -5 -5 -6 -12 -2 -7
5 -8 3 -3 -5 4 -7 17 -10 30 -7 12 3 25 3 29 -1 14 -14 74 -12 80 2 3 8 10 15
16 15 6 0 9 -4 6 -8 -5 -8 1 -9 87 -12 31 -1 57 -6 57 -11 0 -5 12 -9 26 -9
14 0 23 -3 21 -7 -3 -5 13 -9 35 -11 23 -1 68 -11 102 -21 34 -10 88 -27 121
-37 33 -9 66 -19 73 -20 7 -1 33 -12 58 -23 24 -12 49 -21 56 -21 6 0 20 -8
30 -17 10 -9 37 -18 59 -19 46 -2 60 -11 39 -25 -12 -9 -11 -10 4 -5 10 4 25
1 32 -5 7 -6 18 -8 24 -4 15 9 196 -85 185 -97 -3 -2 1 -5 7 -5 16 0 176 -98
273 -167 164 -116 505 -430 505 -465 0 -7 4 -10 9 -6 6 3 15 -5 22 -17 7 -13
18 -27 24 -33 7 -5 67 -80 133 -165 165 -214 231 -273 318 -286 24 -3 44 -10
44 -15 0 -14 68 -10 124 7 143 45 174 72 321 274 47 65 106 140 131 166 24 26
44 51 44 54 0 9 250 252 340 331 41 36 111 91 155 122 44 32 91 65 104 74 42
31 175 112 208 127 18 8 52 28 75 44 54 36 162 87 303 142 61 23 124 48 140
55 17 6 46 17 65 23 19 5 78 24 130 40 164 51 429 108 456 98 8 -3 14 -1 14 4
0 13 72 16 390 18 151 1 322 -3 380 -8z m-5785 -64 c18 -13 18 -14 -8 -9 -15
3 -30 9 -33 14 -8 14 20 10 41 -5z m-1055 -35 c0 -5 -7 -11 -15 -15 -15 -5
-20 5 -8 17 9 10 23 9 23 -2z m-40 -47 c0 -2 -7 -4 -15 -4 -8 0 -15 4 -15 10
0 5 7 7 15 4 8 -4 15 -8 15 -10z m-290 -44 c0 -5 -2 -10 -4 -10 -3 0 -8 5 -11
10 -3 6 -1 10 4 10 6 0 11 -4 11 -10z m-90 -44 c0 -3 -4 -8 -10 -11 -5 -3 -10
-1 -10 4 0 6 5 11 10 11 6 0 10 -2 10 -4z m-60 -26 c0 -5 -7 -10 -16 -10 -8 0
-12 5 -9 10 3 6 10 10 16 10 5 0 9 -4 9 -10z m30 -10 c0 -5 -2 -10 -4 -10 -3
0 -8 5 -11 10 -3 6 -1 10 4 10 6 0 11 -4 11 -10z m-103 -25 c0 -8 -6 -15 -14
-15 -17 0 -17 17 0 23 6 3 12 6 13 6 0 1 1 -6 1 -14z m2488 -5 c3 -5 2 -10 -4
-10 -5 0 -13 5 -16 10 -3 6 -2 10 4 10 5 0 13 -4 16 -10z m-2545 -4 c0 -3 -4
-8 -10 -11 -5 -3 -10 -1 -10 4 0 6 5 11 10 11 6 0 10 -2 10 -4z m112 -14 c5
-18 -13 -42 -32 -42 -5 0 -10 7 -10 15 0 8 7 15 16 15 10 0 14 6 10 15 -3 8
-2 15 3 15 5 0 11 -8 13 -18z m45 -12 c-4 -17 -2 -18 14 -9 15 7 19 7 17 -3
-3 -13 -37 -28 -49 -22 -10 5 2 54 13 54 6 0 8 -9 5 -20z m-157 -20 c0 -5 -7
-7 -15 -4 -8 4 -15 8 -15 10 0 2 7 4 15 4 8 0 15 -4 15 -10z m-70 -34 c0 -2
-7 -7 -16 -10 -8 -3 -12 -2 -9 4 6 10 25 14 25 6z m-133 -32 c-3 -3 -12 -4
-19 -1 -8 3 -5 6 6 6 11 1 17 -2 13 -5z m203 -9 c0 -8 -9 -15 -20 -15 -17 0
-19 2 -8 15 17 19 28 19 28 0z m43 -5 c-3 -11 -9 -17 -14 -14 -14 8 -10 34 5
34 9 0 12 -7 9 -20z m-273 -67 c0 9 5 17 10 17 6 0 10 -9 10 -20 0 -18 -6 -20
-40 -18 -38 2 -59 18 -24 18 11 0 14 6 10 18 -4 10 2 7 14 -8 16 -20 20 -22
20 -7z m-198 -78 c-9 -13 -21 -20 -26 -17 -5 3 -2 10 7 17 12 9 13 15 5 23 -8
8 -5 9 10 5 20 -5 21 -6 4 -28z m38 -15 c0 -5 -7 -10 -15 -10 -8 0 -15 5 -15
10 0 6 7 10 15 10 8 0 15 -4 15 -10z m-90 -85 c7 -9 8 -15 2 -15 -5 0 -12 7
-16 15 -3 8 -4 15 -2 15 2 0 9 -7 16 -15z m-85 -75 c3 -6 -1 -7 -9 -4 -18 7
-21 14 -7 14 6 0 13 -4 16 -10z m-198 -26 c-3 -3 -12 -4 -19 -1 -8 3 -5 6 6 6
11 1 17 -2 13 -5z m73 -4 c0 -5 -2 -10 -4 -10 -3 0 -8 5 -11 10 -3 6 -1 10 4
10 6 0 11 -4 11 -10z m140 -24 c0 -35 -23 -66 -35 -46 -3 5 -3 15 0 20 4 6 2
17 -5 25 -9 10 -7 16 7 24 28 16 33 13 33 -23z m-100 14 c0 -5 -2 -10 -4 -10
-3 0 -8 5 -11 10 -3 6 -1 10 4 10 6 0 11 -4 11 -10z m-2 -42 c-2 -13 -12 -31
-23 -40 -12 -10 -15 -17 -7 -18 14 0 17 -70 2 -70 -5 0 -10 7 -10 15 0 12 -7
14 -27 9 -16 -4 -31 -12 -35 -18 -7 -10 -28 33 -28 59 0 7 -7 15 -15 19 -11 4
-15 -1 -15 -19 0 -14 5 -25 11 -25 5 0 8 -4 5 -9 -4 -5 0 -12 6 -14 7 -3 3 -6
-9 -6 -14 -1 -23 5 -23 14 0 9 -9 15 -22 15 -22 -1 -23 -1 -4 -15 19 -15 19
-15 -2 -15 -15 0 -22 6 -22 20 0 11 -4 20 -9 20 -5 0 -7 10 -3 22 4 16 7 18
10 8 5 -15 21 -30 33 -30 3 0 11 12 17 26 7 14 16 23 21 19 5 -3 11 3 13 12 3
13 7 10 18 -14 20 -44 29 -41 27 7 -3 43 11 49 28 12 13 -30 29 -28 21 2 -5
20 -3 23 14 19 11 -3 20 0 20 6 0 6 3 11 6 11 3 0 4 -10 2 -22z m48 -22 c7
-14 8 -30 3 -38 -7 -10 -9 -10 -9 0 0 6 -9 12 -21 12 -15 0 -19 4 -15 16 3 9
6 20 6 25 0 19 25 8 36 -15z m14 -71 c0 -8 -2 -15 -4 -15 -2 0 -6 7 -10 15 -3
8 -1 15 4 15 6 0 10 -7 10 -15z m16 -20 c-4 -11 1 -15 19 -15 14 0 25 -5 25
-11 0 -15 -72 -7 -78 9 -2 6 3 12 12 12 9 0 16 5 16 10 0 6 3 10 6 10 3 0 4
-7 0 -15z m-276 -41 c0 -8 -5 -12 -10 -9 -6 4 -8 11 -5 16 9 14 15 11 15 -7z
m-194 -310 c-19 -19 -21 -11 -4 16 7 11 14 16 16 10 2 -5 -4 -17 -12 -26z
m-106 -83 c0 -4 -7 -8 -15 -8 -8 0 -15 6 -15 13 0 8 6 11 15 8 8 -4 15 -9 15
-13z m-340 -117 c0 -8 -19 -13 -24 -6 -3 5 1 9 9 9 8 0 15 -2 15 -3z m37 -34
c1 -11 -2 -20 -8 -20 -10 0 -12 23 -2 33 9 9 9 10 10 -13z m-61 -27 c2 -30
-12 -30 -18 0 -3 13 0 24 6 24 6 0 12 -11 12 -24z m175 -10 c-10 -17 -10 -16
-11 3 0 23 13 41 18 25 2 -6 -1 -18 -7 -28z m106 -3 c-2 -17 -7 -33 -10 -37
-4 -3 -7 -15 -7 -25 0 -10 -3 -17 -7 -17 -27 4 -35 -3 -31 -25 3 -14 1 -31 -3
-38 -6 -8 -9 -2 -9 19 0 25 -4 31 -15 27 -9 -4 -15 0 -16 7 0 8 -4 5 -8 -6 -5
-11 -5 -25 0 -31 12 -14 1 -24 -27 -24 -12 0 -25 -6 -27 -12 -5 -12 -11 26 -8
45 1 4 -6 10 -14 13 -8 4 -15 11 -15 16 0 6 6 5 15 -2 19 -16 43 -6 55 22 5
13 9 17 9 11 1 -16 31 -17 31 -2 0 5 5 7 10 4 6 -3 11 1 11 9 1 9 2 21 3 27 1
15 37 40 47 33 5 -3 9 0 9 5 0 6 2 11 5 11 3 0 3 -14 2 -30z m7 -76 c3 -8 2
-12 -4 -9 -6 3 -10 10 -10 16 0 14 7 11 14 -7z m-23 -61 c-9 -16 -10 -15 -11
8 0 14 3 29 8 33 12 12 14 -22 3 -41z m-161 -14 c0 -5 -5 -7 -12 -3 -8 5 -9 0
-6 -14 7 -26 2 -28 -18 -8 -12 13 -12 16 3 25 23 13 33 14 33 0z m-63 -81 c-3
-8 -6 -5 -6 6 -1 11 2 17 5 13 3 -3 4 -12 1 -19z m-93 -19 c-8 -13 -21 -11
-27 5 -4 10 0 12 14 9 10 -3 16 -9 13 -14z m-21 -43 c17 -13 16 -14 -2 -19
-21 -5 -46 15 -34 26 9 10 15 8 36 -7z m-243 -341 c0 -9 -6 -12 -16 -8 -13 5
-13 7 -2 14 17 11 18 11 18 -6z m40 -55 c0 -5 -5 -10 -11 -10 -5 0 -7 5 -4 10
3 6 8 10 11 10 2 0 4 -4 4 -10z m-57 -90 c3 -11 1 -18 -4 -14 -5 3 -9 12 -9
20 0 20 7 17 13 -6z m-23 -95 c0 -12 -19 -12 -23 0 -4 9 -1 12 9 8 7 -3 14 -7
14 -8z"/>
<path d="M9950 22198 c0 -4 6 -8 14 -8 8 0 17 4 20 8 2 4 -4 8 -15 8 -10 0
-19 -4 -19 -8z"/>
<path d="M10001 22194 c0 -11 3 -14 6 -6 3 7 2 16 -1 19 -3 4 -6 -2 -5 -13z"/>
<path d="M10080 22201 c0 -6 4 -13 10 -16 6 -3 7 1 4 9 -7 18 -14 21 -14 7z"/>
<path d="M9880 22189 c0 -5 5 -7 10 -4 6 3 10 8 10 11 0 2 -4 4 -10 4 -5 0
-10 -5 -10 -11z"/>
<path d="M9200 22055 c0 -2 10 -10 23 -16 20 -11 21 -11 8 4 -13 16 -31 23
-31 12z"/>
<path d="M9147 22033 c-10 -16 11 -39 23 -27 8 8 7 14 -4 23 -8 7 -17 8 -19 4z"/>
<path d="M9075 22000 c-3 -5 -1 -10 4 -10 6 0 11 5 11 10 0 6 -2 10 -4 10 -3
0 -8 -4 -11 -10z"/>
<path d="M9050 21971 c0 -12 5 -21 10 -21 6 0 10 6 10 14 0 8 -4 18 -10 21 -5
3 -10 -3 -10 -14z"/>
<path d="M9150 21980 c0 -5 5 -10 11 -10 5 0 7 5 4 10 -3 6 -8 10 -11 10 -2 0
-4 -4 -4 -10z"/>
<path d="M8665 21780 c-3 -5 1 -10 9 -10 9 0 16 5 16 10 0 6 -4 10 -9 10 -6 0
-13 -4 -16 -10z"/>
<path d="M8724 21738 c-4 -6 -3 -8 4 -4 5 3 12 1 14 -6 3 -8 7 -6 11 5 7 20
-17 24 -29 5z"/>
<path d="M8605 21730 c-3 -5 1 -10 10 -10 9 0 13 5 10 10 -3 6 -8 10 -10 10
-2 0 -7 -4 -10 -10z"/>
<path d="M8800 21729 c0 -5 5 -7 10 -4 6 3 10 8 10 11 0 2 -4 4 -10 4 -5 0
-10 -5 -10 -11z"/>
<path d="M8647 21714 c-12 -13 -8 -22 14 -27 15 -4 19 -1 17 10 -3 18 -21 27
-31 17z"/>
<path d="M8600 21700 c0 -5 7 -10 15 -10 8 0 15 5 15 10 0 6 -7 10 -15 10 -8
0 -15 -4 -15 -10z"/>
<path d="M8554 21658 c-3 -4 2 -8 10 -8 8 0 17 4 20 8 3 5 -2 9 -10 9 -8 0
-17 -4 -20 -9z"/>
<path d="M8510 21550 c0 -5 5 -10 11 -10 5 0 7 5 4 10 -3 6 -8 10 -11 10 -2 0
-4 -4 -4 -10z"/>
<path d="M8440 21484 c0 -8 5 -12 10 -9 6 4 8 11 5 16 -9 14 -15 11 -15 -7z"/>
<path d="M8472 21455 c-11 -12 -10 -15 3 -15 8 0 15 7 15 15 0 18 -2 18 -18 0z"/>
<path d="M8377 21452 c-28 -6 -19 -66 11 -70 26 -4 29 6 5 23 -9 7 -13 17 -9
24 6 9 11 9 22 0 12 -10 18 -9 30 3 14 14 13 16 -13 20 -15 2 -36 2 -46 0z"/>
<path d="M8272 21420 c-11 -17 -10 -20 8 -20 21 0 25 7 12 27 -6 9 -11 7 -20
-7z"/>
<path d="M8030 21230 c-13 -8 -12 -12 5 -24 11 -9 26 -16 33 -16 23 0 12 -20
-12 -20 -14 0 -28 -4 -31 -10 -3 -5 -16 -11 -28 -11 -20 -1 -21 -2 -2 -6 11
-3 24 -11 28 -19 4 -8 15 -14 22 -14 8 0 15 -5 15 -11 0 -6 -7 -9 -15 -5 -8 3
-21 -1 -29 -9 -17 -17 -26 -9 -26 22 0 14 -6 23 -15 23 -9 0 -15 -10 -15 -26
0 -16 -4 -23 -12 -18 -8 5 -9 0 -6 -14 4 -12 2 -20 -2 -17 -13 8 -40 -6 -40
-22 0 -8 5 -11 11 -7 8 4 9 0 4 -15 -5 -15 -2 -21 9 -21 20 0 21 -16 1 -24 -9
-3 -18 1 -21 9 -7 17 -34 20 -34 4 0 -8 -5 -8 -15 1 -10 9 -15 9 -15 1 0 -6
-1 -14 -2 -18 -2 -3 7 -7 20 -8 29 -2 54 -24 29 -26 -9 -1 -21 -3 -27 -4 -5
-1 -14 -3 -20 -4 -5 0 -7 -9 -4 -18 5 -16 4 -16 -5 -2 -7 11 -20 14 -41 11
-30 -4 -32 -7 -28 -43 3 -34 1 -39 -22 -45 -14 -3 -19 -9 -12 -11 6 -3 10 -8
7 -12 -5 -9 52 -13 78 -5 9 3 17 11 17 19 0 7 6 15 13 18 6 2 9 8 5 12 -5 5
-19 3 -32 -3 -19 -9 -27 -8 -37 4 -17 20 5 44 23 26 7 -7 22 -12 34 -12 12 0
24 -7 28 -15 3 -8 10 -15 17 -15 6 0 9 7 5 15 -3 9 0 15 8 15 8 0 17 7 20 16
5 13 0 16 -29 12 -22 -2 -34 0 -32 6 2 6 24 11 48 11 38 0 44 3 47 22 2 12 12
25 22 28 10 3 22 15 25 26 5 14 13 19 26 16 11 -3 16 -1 13 4 -8 14 15 39 36
39 12 0 17 9 18 30 0 17 -4 28 -9 25 -5 -4 -9 3 -9 14 0 18 3 20 19 9 10 -6
17 -17 14 -24 -2 -6 0 -15 5 -18 17 -10 62 12 62 30 0 11 6 15 19 11 15 -4 19
0 16 14 -2 11 1 19 6 19 6 0 7 9 4 21 -6 19 -4 21 18 15 20 -5 25 -2 23 11 -3
17 -26 32 -26 16 0 -14 -153 -3 -170 12 -10 9 -21 11 -30 5z m150 -50 c0 -5
-13 -10 -29 -10 -17 0 -33 5 -36 10 -4 6 8 10 29 10 20 0 36 -4 36 -10z m-60
-30 c13 -8 13 -10 -2 -10 -9 0 -20 5 -23 10 -8 13 5 13 25 0z m-92 -118 c2 -7
-7 -12 -23 -12 -24 0 -26 2 -15 15 14 17 31 16 38 -3z m-68 -7 c10 -12 10 -15
-4 -15 -9 0 -16 7 -16 15 0 8 2 15 4 15 2 0 9 -7 16 -15z"/>
<path d="M7805 20950 c-3 -5 -1 -10 4 -10 6 0 11 5 11 10 0 6 -2 10 -4 10 -3
0 -8 -4 -11 -10z"/>
<path d="M7959 20853 c-13 -16 -12 -17 4 -4 9 7 17 15 17 17 0 8 -8 3 -21 -13z"/>
<path d="M7735 20760 c-3 -5 -1 -18 4 -27 11 -19 11 -19 15 15 3 23 -8 30 -19
12z"/>
<path d="M7674 20735 c-9 -22 3 -33 32 -27 24 4 25 6 11 17 -9 7 -14 15 -10
18 3 4 -1 7 -11 7 -9 0 -19 -7 -22 -15z"/>
<path d="M7552 20723 c0 -10 -3 -26 -7 -36 -6 -13 -4 -16 9 -11 9 3 16 15 16
25 0 10 0 22 1 26 0 4 -4 9 -10 11 -5 2 -10 -5 -9 -15z"/>
<path d="M10089 20726 c-2 -2 -51 -6 -108 -10 -123 -7 -292 -46 -379 -87 -35
-16 -72 -29 -82 -29 -11 0 -20 -4 -20 -10 0 -5 -8 -10 -17 -10 -10 0 -33 -9
-50 -20 -18 -11 -33 -18 -33 -15 0 8 -75 -30 -133 -68 -31 -20 -60 -37 -62
-37 -22 0 -199 -142 -331 -265 -76 -71 -88 -80 -96 -78 -5 2 -8 -2 -8 -8 0 -7
-16 -31 -35 -54 -19 -23 -31 -45 -28 -49 4 -3 1 -6 -5 -6 -7 0 -33 -23 -59
-51 -27 -29 -62 -67 -80 -86 -18 -19 -35 -43 -38 -53 -4 -11 -10 -20 -15 -20
-5 0 -11 -8 -15 -19 -3 -10 -17 -31 -30 -45 -14 -15 -25 -34 -25 -42 0 -7 -4
-14 -10 -14 -5 0 -7 -15 -5 -32 4 -24 3 -27 -3 -14 -11 24 -25 6 -16 -21 4
-14 4 -15 -4 -4 -14 20 -34 3 -26 -22 3 -12 3 -19 -1 -15 -10 10 -42 -40 -94
-147 -52 -109 -72 -148 -101 -199 -11 -21 -19 -45 -16 -52 3 -7 2 -16 -3 -18
-24 -15 18 -117 72 -175 32 -35 36 -36 100 -35 62 1 69 3 109 40 24 21 43 42
43 46 0 4 6 13 13 20 6 6 12 18 12 25 0 7 4 13 8 13 4 0 8 10 9 21 1 12 8 29
16 38 8 9 18 27 22 40 4 14 18 36 31 50 13 14 22 32 19 39 -2 6 2 12 9 12 8 0
16 16 20 40 3 22 12 40 19 40 7 0 13 10 14 21 1 12 11 31 21 43 10 11 22 30
26 41 4 12 10 15 14 9 5 -7 14 -5 27 8 20 19 20 19 0 12 -17 -6 -18 -5 -8 7 6
8 12 19 12 24 1 6 6 10 13 10 6 0 16 15 20 32 5 18 14 32 21 30 6 -1 13 8 15
20 2 12 17 34 33 48 17 14 27 25 24 25 -4 0 7 12 25 28 17 15 101 95 186 179
85 84 154 149 154 145 0 -4 11 6 24 21 14 16 26 27 28 25 4 -3 60 39 92 67 6
6 25 17 41 25 17 8 32 17 35 20 11 11 50 30 62 30 7 0 24 9 38 20 14 11 33 20
43 20 9 0 17 4 17 9 0 5 10 11 23 14 12 3 47 15 77 27 30 11 66 23 79 26 13 3
33 10 44 15 50 27 153 47 240 46 63 -1 92 2 95 11 2 7 9 12 15 12 7 0 25 21
41 46 62 99 41 211 -48 253 -40 18 -105 28 -117 17z"/>
<path d="M7668 20679 c-10 -5 -24 -9 -30 -8 -7 2 -28 -1 -46 -5 -28 -7 -32
-11 -26 -29 4 -12 8 -30 9 -39 3 -33 15 -31 15 2 0 44 25 73 52 59 15 -8 26
-6 51 10 26 17 28 21 12 21 -11 -1 -28 -5 -37 -11z"/>
<path d="M7550 20559 c0 -5 5 -7 10 -4 6 3 10 8 10 11 0 2 -4 4 -10 4 -5 0
-10 -5 -10 -11z"/>
<path d="M7103 20233 c-18 -7 -16 -23 2 -23 8 0 15 7 15 15 0 8 -1 15 -2 14
-2 0 -9 -3 -15 -6z"/>
<path d="M7130 20219 c0 -23 30 -23 38 0 3 8 0 11 -7 7 -6 -4 -11 -2 -11 3 0
6 -4 11 -10 11 -5 0 -10 -9 -10 -21z"/>
<path d="M7130 20168 c0 -9 -8 -19 -17 -21 -11 -3 -7 -5 10 -6 29 -1 33 5 17
29 -8 13 -10 13 -10 -2z"/>
<path d="M7050 20106 c0 -9 40 -13 46 -5 3 5 -6 9 -20 9 -14 0 -26 -2 -26 -4z"/>
<path d="M6998 20031 c-32 -7 -25 -31 10 -34 17 -1 20 -6 15 -29 -4 -19 -1
-28 7 -28 8 0 10 3 7 7 -4 3 -2 12 4 19 10 12 3 61 -10 67 -3 2 -18 1 -33 -2z"/>
<path d="M6920 19805 c0 -9 6 -12 15 -9 8 4 15 7 15 9 0 2 -7 5 -15 9 -9 3
-15 0 -15 -9z"/>
<path d="M6905 19670 c3 -5 8 -10 11 -10 2 0 4 5 4 10 0 6 -5 10 -11 10 -5 0
-7 -4 -4 -10z"/>
<path d="M6771 19474 c0 -11 3 -14 6 -6 3 7 2 16 -1 19 -3 4 -6 -2 -5 -13z"/>
<path d="M6764 19436 c-3 -8 -4 -23 -2 -33 3 -11 6 -6 9 15 6 34 2 42 -7 18z"/>
<path d="M3921 14524 c0 -11 3 -14 6 -6 3 7 2 16 -1 19 -3 4 -6 -2 -5 -13z"/>
<path d="M4913 14429 c-33 -16 -48 -33 -67 -72 -14 -29 -26 -70 -28 -92 -1
-22 -6 -43 -12 -47 -5 -4 -10 -117 -10 -285 l-1 -278 33 -130 c54 -211 120
-402 178 -518 30 -60 54 -113 54 -119 0 -6 16 -33 35 -59 19 -27 35 -53 35
-58 0 -5 19 -29 43 -53 23 -25 78 -85 121 -134 94 -105 121 -127 286 -226 161
-97 183 -108 218 -108 38 0 104 49 125 93 41 85 12 138 -126 229 -137 91 -294
224 -355 300 -77 98 -193 309 -254 462 -30 78 -47 163 -63 323 -18 179 -19
317 -3 489 15 167 14 201 -10 233 -51 70 -123 88 -199 50z"/>
<path d="M20796 14427 c-84 -47 -93 -85 -68 -279 40 -320 -21 -731 -149 -994
-111 -228 -272 -409 -502 -563 -141 -95 -162 -115 -173 -168 -11 -55 47 -139
111 -160 44 -14 83 -2 168 51 321 200 509 406 664 728 130 269 191 593 180
958 -10 322 -39 416 -132 435 -16 4 -37 8 -45 11 -8 2 -33 -6 -54 -19z"/>
<path d="M10090 13371 c-170 -34 -303 -94 -567 -256 -161 -99 -172 -108 -443
-349 -19 -17 -52 -46 -73 -64 -35 -29 -89 -94 -182 -216 -17 -22 -60 -79 -97
-127 -36 -48 -74 -100 -83 -116 -8 -15 -29 -50 -46 -78 -16 -27 -35 -62 -40
-77 -6 -16 -15 -28 -19 -28 -5 0 -11 -10 -15 -22 -5 -20 -27 -75 -56 -143 -29
-66 -103 -291 -115 -350 -21 -94 -21 -309 -1 -402 20 -90 80 -228 164 -375 36
-62 75 -131 87 -153 11 -22 26 -43 31 -47 7 -5 7 -8 0 -8 -7 0 -7 -3 0 -8 6
-4 39 -47 74 -97 212 -296 448 -557 626 -692 177 -134 356 -239 470 -278 81
-27 307 -33 1053 -27 l692 5 0 30 c0 44 46 242 79 340 23 67 27 89 18 100 -11
12 -59 46 -242 172 -33 23 -98 68 -145 100 -412 283 -851 697 -1055 995 -159
233 -218 470 -164 665 19 71 80 182 129 237 109 123 204 171 277 141 64 -26
104 -114 79 -173 -5 -14 -42 -56 -82 -95 -119 -117 -157 -207 -134 -318 16
-77 117 -276 191 -377 77 -105 291 -323 440 -450 62 -52 119 -102 128 -111 86
-85 684 -510 734 -523 21 -5 30 1 56 37 53 71 151 166 251 242 158 120 262
165 573 251 31 8 57 19 57 24 0 5 -6 24 -14 42 -8 18 -40 112 -72 208 -47 145
-127 342 -222 550 -72 159 -237 427 -409 666 -203 284 -577 642 -863 830 -183
120 -405 239 -510 276 -182 63 -395 81 -560 49z"/>
<path d="M15390 13374 c-156 -28 -252 -63 -415 -151 -302 -162 -440 -260 -731
-525 -323 -293 -623 -711 -847 -1178 -83 -173 -214 -508 -263 -673 l-32 -108
25 -10 c13 -5 30 -9 38 -9 7 0 53 -12 101 -26 330 -95 572 -256 752 -499 24
-33 47 -60 51 -59 17 1 67 28 128 68 38 24 104 65 148 92 441 264 956 688
1141 939 90 122 153 255 161 337 9 101 -14 154 -108 253 -116 121 -130 173
-67 249 78 95 169 76 304 -62 94 -96 167 -273 167 -407 1 -142 -81 -344 -211
-527 -127 -178 -438 -473 -727 -689 -166 -125 -441 -307 -673 -445 -45 -27
-92 -56 -104 -65 l-21 -16 27 -96 c15 -52 33 -142 39 -199 l12 -103 820 0
c885 0 880 0 995 53 87 41 300 169 355 213 297 241 503 470 718 796 196 297
244 392 297 588 47 172 33 397 -37 608 -44 134 -200 451 -281 572 -211 314
-496 593 -817 800 -201 130 -405 239 -468 249 -17 3 -75 15 -127 26 -110 23
-239 24 -350 4z"/>
<path d="M12755 10436 c-172 -32 -313 -90 -457 -187 -244 -165 -409 -438 -448
-742 -14 -105 -11 -273 4 -340 27 -109 116 -220 216 -266 54 -25 59 -25 415
-32 198 -4 554 -4 790 0 411 7 432 8 487 30 107 42 197 150 227 275 7 28 12
104 13 170 0 195 -61 429 -152 577 -149 245 -425 447 -689 505 -92 21 -319 26
-406 10z"/>
<path d="M9995 9160 c-54 -3 -89 -11 -107 -23 -81 -55 -332 -375 -456 -580
-100 -167 -134 -237 -222 -457 -56 -139 -101 -291 -107 -365 -5 -52 -3 -62 16
-79 18 -16 27 -17 68 -8 41 8 246 79 558 190 102 37 219 37 297 0 72 -33 143
-99 174 -160 30 -60 174 -396 174 -408 0 -21 61 -155 81 -176 19 -20 23 -21
37 -8 10 11 18 12 25 5 11 -11 47 13 47 31 0 4 22 41 49 81 27 39 74 110 104
157 124 189 425 592 561 750 103 120 398 418 499 504 l68 58 -80 82 c-93 94
-107 111 -148 186 -32 58 -55 118 -73 188 l-11 42 -737 -2 c-405 -1 -773 -5
-817 -8z"/>
<path d="M14284 9142 c-18 -88 -58 -196 -92 -247 -21 -33 -75 -94 -119 -135
-44 -41 -78 -81 -76 -87 3 -7 39 -42 81 -79 346 -300 692 -711 1036 -1230 179
-271 177 -269 213 -272 24 -2 35 3 51 26 32 43 86 163 141 307 78 206 127 300
183 350 63 57 125 86 200 95 80 9 149 -6 313 -68 159 -60 416 -143 465 -149
31 -4 39 -1 54 22 26 39 18 78 -59 312 -92 276 -207 507 -368 737 -79 114
-239 305 -321 386 l-57 55 -819 2 -820 2 -6 -27z"/>
<path d="M8021 21324 c0 -11 3 -14 6 -6 3 7 2 16 -1 19 -3 4 -6 -2 -5 -13z"/>
<path d="M8040 21330 c0 -5 5 -10 11 -10 5 0 7 5 4 10 -3 6 -8 10 -11 10 -2 0
-4 -4 -4 -10z"/>
</g>
</svg>
